<svg width="40" height="40" viewBox="0 0 40 40" fill="none" xmlns="http://www.w3.org/2000/svg">
<path d="M14.2547 12.1469L18.125 8.27671V28.7501C18.125 29.2474 18.3225 29.7243 18.6741 30.0759C19.0258 30.4275 19.5027 30.6251 20 30.6251C20.4972 30.6251 20.9741 30.4275 21.3258 30.0759C21.6774 29.7243 21.875 29.2474 21.875 28.7501V8.27671L25.7452 12.1469C25.9191 12.3218 26.1259 12.4607 26.3536 12.5555C26.5812 12.6504 26.8254 12.6994 27.0721 12.6997C27.3187 12.7001 27.563 12.6517 27.791 12.5575C28.0189 12.4633 28.226 12.325 28.4004 12.1506C28.5749 11.9761 28.7131 11.769 28.8074 11.5411C28.9016 11.3131 28.9499 11.0688 28.9496 10.8222C28.9493 10.5755 28.9003 10.3314 28.8054 10.1037C28.7106 9.87598 28.5717 9.66924 28.3968 9.4953L21.3258 2.42421C21.1517 2.25009 20.945 2.11197 20.7175 2.01774C20.49 1.9235 20.2462 1.875 20 1.875C19.7537 1.875 19.5099 1.9235 19.2824 2.01774C19.0549 2.11197 18.8482 2.25009 18.6741 2.42421L11.6031 9.4953C11.4282 9.66924 11.2893 9.87598 11.1945 10.1037C11.0996 10.3314 11.0506 10.5755 11.0503 10.8222C11.05 11.0688 11.0983 11.3131 11.1925 11.5411C11.2868 11.769 11.4251 11.9761 11.5995 12.1506C11.7739 12.325 11.981 12.4633 12.2089 12.5575C12.4369 12.6517 12.6812 12.7001 12.9278 12.6997C13.1745 12.6994 13.4187 12.6504 13.6464 12.5555C13.874 12.4607 14.0808 12.3218 14.2547 12.1469Z" fill="black"/>
<path d="M36.25 18.125C35.7527 18.125 35.2758 18.3225 34.9242 18.6742C34.5725 19.0258 34.375 19.5027 34.375 20V34.375H5.625V20C5.625 19.5027 5.42746 19.0258 5.07583 18.6742C4.72419 18.3225 4.24728 18.125 3.75 18.125C3.25272 18.125 2.77581 18.3225 2.42417 18.6742C2.07254 19.0258 1.875 19.5027 1.875 20V35C1.875 35.8288 2.20424 36.6237 2.79029 37.2097C3.37634 37.7958 4.1712 38.125 5 38.125H35C35.8288 38.125 36.6237 37.7958 37.2097 37.2097C37.7958 36.6237 38.125 35.8288 38.125 35V20C38.125 19.5027 37.9275 19.0258 37.5758 18.6742C37.2242 18.3225 36.7473 18.125 36.25 18.125Z" fill="black"/>
</svg>
